<?xml version="1.0" encoding="UTF-8" standalone="no"?>
<!-- Created with Inkscape (http://www.inkscape.org/) -->

<svg
   xmlns:dc="http://purl.org/dc/elements/1.1/"
   xmlns:cc="http://creativecommons.org/ns#"
   xmlns:rdf="http://www.w3.org/1999/02/22-rdf-syntax-ns#"
   xmlns:svg="http://www.w3.org/2000/svg"
   xmlns="http://www.w3.org/2000/svg"
   xmlns:sodipodi="http://sodipodi.sourceforge.net/DTD/sodipodi-0.dtd"
   xmlns:inkscape="http://www.inkscape.org/namespaces/inkscape"
   width="512"
   height="256"
   id="svg2"
   version="1.1"
   inkscape:version="0.48.4 r9939"
   sodipodi:docname="nxtinfo-banner.svg"
   inkscape:export-filename="/home/gabo/wwwsupernetorg/assets/images/partners/nxinfo-banner.png"
   inkscape:export-xdpi="90"
   inkscape:export-ydpi="90">
  <defs
     id="defs4" />
  <sodipodi:namedview
     id="base"
     pagecolor="#ffffff"
     bordercolor="#666666"
     borderopacity="1.0"
     inkscape:pageopacity="0.0"
     inkscape:pageshadow="2"
     inkscape:zoom="1.4"
     inkscape:cx="417.11565"
     inkscape:cy="92.487993"
     inkscape:document-units="px"
     inkscape:current-layer="layer1"
     showgrid="false"
     showguides="true"
     inkscape:guide-bbox="true"
     inkscape:window-width="1855"
     inkscape:window-height="1176"
     inkscape:window-x="65"
     inkscape:window-y="24"
     inkscape:window-maximized="1">
    <sodipodi:guide
       orientation="1,0"
       position="30,0"
       id="guide2985" />
    <sodipodi:guide
       orientation="1,0"
       position="482,0"
       id="guide2987" />
    <sodipodi:guide
       orientation="0,1"
       position="0,30"
       id="guide2989" />
    <sodipodi:guide
       orientation="0,1"
       position="0,226"
       id="guide2991" />
  </sodipodi:namedview>
  <metadata
     id="metadata7">
    <rdf:RDF>
      <cc:Work
         rdf:about="">
        <dc:format>image/svg+xml</dc:format>
        <dc:type
           rdf:resource="http://purl.org/dc/dcmitype/StillImage" />
      </cc:Work>
    </rdf:RDF>
  </metadata>
  <g
     inkscape:label="Vrstva 1"
     inkscape:groupmode="layer"
     id="layer1"
     transform="translate(0,-796.36218)">
    <g
       transform="translate(-0.93528127,-45.956254)"
       id="layer1-9"
       inkscape:label="Vrstva 1">
      <g
         id="g4606"
         transform="matrix(2.9363749,0,0,2.9363749,-235.50767,-1339.2104)">
        <path
           style="color:#000000;fill:#008fbb;fill-opacity:1;stroke:none;stroke-width:1.14059532;marker:none;visibility:visible;display:inline;overflow:visible;enable-background:accumulate"
           d="m 108.5625,445.0625 c -9.494744,0 -17.1875,7.69268 -17.1875,17.1875 0,9.49482 7.692756,17.1875 17.1875,17.1875 9.49474,0 17.1875,-7.69268 17.1875,-17.1875 0,-9.49482 -7.69276,-17.1875 -17.1875,-17.1875 z m 0,1.96875 c 8.40033,0 15.21875,6.81836 15.21875,15.21875 0,8.40039 -6.81842,15.21875 -15.21875,15.21875 -8.40033,0 -15.21875,-6.81836 -15.21875,-15.21875 0,-8.40039 6.81842,-15.21875 15.21875,-15.21875 z"
           transform="translate(0,308.2677)"
           id="path4744"
           inkscape:connector-curvature="0" />
        <g
           transform="matrix(0.79692224,0,0,0.79692845,-200.0521,372.56753)"
           id="g4748">
          <path
             inkscape:connector-curvature="0"
             style="font-size:38.25986099px;font-style:normal;font-variant:normal;font-weight:bold;font-stretch:normal;line-height:125%;letter-spacing:0px;word-spacing:0px;fill:#2ad4ff;fill-opacity:1;stroke:none;font-family:Ubuntu Mono;-inkscape-font-specification:Ubuntu Mono Bold"
             d="m 388.49394,490.97827 c 0.14868,1.79244 -1.68907,3.27548 -3.41508,2.96944 -1.48304,-0.15022 -2.66604,-1.57595 -2.52819,-3.06385 -0.0585,-1.55086 1.28546,-2.96161 2.84698,-2.94091 1.59589,-0.0901 3.18391,1.25439 3.09443,2.90769 l 0.002,0.12763 4e-5,0 z"
             id="path4750" />
          <path
             style="font-size:38.25986099px;font-style:normal;font-variant:normal;font-weight:bold;font-stretch:normal;line-height:125%;letter-spacing:0px;word-spacing:0px;fill:#2ad4ff;fill-opacity:1;stroke:none;font-family:Ubuntu Mono;-inkscape-font-specification:Ubuntu Mono Bold"
             d="m 393.46258,509.88198 c -2.00513,0.91966 -4.44471,1.29542 -6.50408,0.33655 -1.37926,-0.72646 -1.9836,-2.31903 -2.08156,-3.79805 -0.17665,-2.03133 -0.061,-4.07319 -0.0911,-6.10994 0.072,-0.36684 -0.0331,-0.55668 -0.42451,-0.46012 -1.10764,0 -2.21528,0 -3.32291,0 0,-0.98009 0,-1.96019 0,-2.94028 2.43102,0 4.86204,0 7.29306,0 0.0235,3.03922 -0.0489,6.08142 0.0397,9.11874 0.0399,0.9208 0.79271,1.72812 1.74396,1.65218 1.00023,0.0595 1.99052,-0.22565 2.88626,-0.65288 0.15372,0.95126 0.30752,1.90258 0.4612,2.8538 z"
             id="path4752"
             inkscape:connector-curvature="0" />
        </g>
        <g
           id="g4559">
          <path
             d="m 140.69911,762.63801 1.92274,0 6.71434,11.61794 0,-11.61794 2.11603,0 0,16.27731 -1.84134,0 -6.80591,-11.76035 0,11.76035 -2.10586,0 0,-16.27731"
             style="font-size:9.78577805px;font-style:normal;font-variant:normal;font-weight:bold;font-stretch:normal;text-align:center;line-height:125%;letter-spacing:1.40921259px;word-spacing:0px;text-anchor:middle;fill:#006680;fill-opacity:1;stroke:none;font-family:Caviar Dreams;-inkscape-font-specification:Caviar Dreams Bold"
             id="path4509"
             inkscape:connector-curvature="0" />
          <path
             d="m 156.47704,778.91532 5.11714,-8.88131 -4.26258,-7.396 2.42122,0 3.05198,5.3003 3.07232,-5.3003 2.42122,0 -4.28294,7.396 5.13749,8.88131 -2.42122,0 -3.92687,-6.78561 -3.90654,6.78561 -2.42122,0"
             style="font-size:9.78577805px;font-style:normal;font-variant:normal;font-weight:bold;font-stretch:normal;text-align:center;line-height:125%;letter-spacing:1.40921259px;word-spacing:0px;text-anchor:middle;fill:#006680;fill-opacity:1;stroke:none;font-family:Caviar Dreams;-inkscape-font-specification:Caviar Dreams Bold"
             id="path4511"
             inkscape:connector-curvature="0" />
          <path
             d="m 179.10155,764.74389 0,14.17143 -2.11604,0 0,-14.17143 -3.79461,0 0,-2.10588 9.70528,0 0,2.10588 -3.79463,0"
             style="font-size:9.78577805px;font-style:normal;font-variant:normal;font-weight:bold;font-stretch:normal;text-align:center;line-height:125%;letter-spacing:1.40921259px;word-spacing:0px;text-anchor:middle;fill:#006680;fill-opacity:1;stroke:none;font-family:Caviar Dreams;-inkscape-font-specification:Caviar Dreams Bold"
             id="path4513"
             inkscape:connector-curvature="0" />
          <path
             inkscape:connector-curvature="0"
             id="path4515"
             transform="translate(0,308.2677)"
             d="m 188.15625,461.25 0,9.40625 2.09375,0 0,-9.40625 c -0.35866,0.0658 -0.74731,0.0937 -1.125,0.0937 -0.33229,0 -0.65091,-0.0425 -0.96875,-0.0937 z"
             style="font-size:9.78577805px;font-style:normal;font-variant:normal;font-weight:bold;font-stretch:normal;text-align:center;line-height:125%;letter-spacing:1.40921259px;word-spacing:0px;text-anchor:middle;fill:#006680;fill-opacity:1;stroke:none;font-family:Caviar Dreams;-inkscape-font-specification:Caviar Dreams Bold" />
          <path
             d="m 196.52678,762.63801 1.92274,0 6.71434,11.61794 0,-11.61794 2.11603,0 0,16.27731 -1.84136,0 -6.80589,-11.76035 0,11.76035 -2.10586,0 0,-16.27731"
             style="font-size:9.78577805px;font-style:normal;font-variant:normal;font-weight:bold;font-stretch:normal;text-align:center;line-height:125%;letter-spacing:1.40921259px;word-spacing:0px;text-anchor:middle;fill:#006680;fill-opacity:1;stroke:none;font-family:Caviar Dreams;-inkscape-font-specification:Caviar Dreams Bold"
             id="path4517"
             inkscape:connector-curvature="0" />
          <path
             d="m 221.15542,762.63801 0,2.10588 -5.72753,0 0,4.97474 5.72753,0 0,2.10588 -5.72753,0 0,7.09081 -2.10586,0 0,-16.27731 7.83339,0"
             style="font-size:9.78577805px;font-style:normal;font-variant:normal;font-weight:bold;font-stretch:normal;text-align:center;line-height:125%;letter-spacing:1.40921259px;word-spacing:0px;text-anchor:middle;fill:#006680;fill-opacity:1;stroke:none;font-family:Caviar Dreams;-inkscape-font-specification:Caviar Dreams Bold"
             id="path4519"
             inkscape:connector-curvature="0" />
          <path
             d="m 235.02077,762.42438 c 2.29914,0 4.26259,0.81387 5.89032,2.44159 1.62771,1.62775 2.44155,3.59119 2.44157,5.89034 -2e-5,2.29918 -0.81386,4.26262 -2.44157,5.89037 -1.62773,1.62772 -3.59118,2.44159 -5.89032,2.44159 -2.29914,0 -4.26258,-0.81387 -5.89029,-2.44159 -1.62773,-1.62775 -2.44158,-3.59119 -2.44158,-5.89037 0,-2.29915 0.81385,-4.26259 2.44158,-5.89034 1.62771,-1.62772 3.59115,-2.44159 5.89029,-2.44159 m 0,2.12621 c -1.71587,2e-5 -3.18084,0.60703 -4.39482,1.82102 -1.20724,1.20725 -1.81086,2.66881 -1.81083,4.3847 -3e-5,1.71591 0.60698,3.18087 1.82101,4.39488 1.21398,1.21402 2.67554,1.82103 4.38464,1.82103 1.71588,0 3.17743,-0.60701 4.38467,-1.82103 1.21401,-1.21401 1.82101,-2.67897 1.82101,-4.39488 0,-1.71589 -0.607,-3.17745 -1.82101,-4.3847 -1.20724,-1.21399 -2.66879,-1.821 -4.38467,-1.82102"
             style="font-size:9.78577805px;font-style:normal;font-variant:normal;font-weight:bold;font-stretch:normal;text-align:center;line-height:125%;letter-spacing:1.40921259px;word-spacing:0px;text-anchor:middle;fill:#006680;fill-opacity:1;stroke:none;font-family:Caviar Dreams;-inkscape-font-specification:Caviar Dreams Bold"
             id="path4521"
             inkscape:connector-curvature="0" />
          <path
             inkscape:connector-curvature="0"
             id="path4740"
             d="m 191.60642,763.5144 c 0,1.36578 -1.10718,2.47297 -2.47295,2.47297 -1.36578,0 -2.47295,-1.10719 -2.47295,-2.47297 0,-1.36579 1.10717,-2.47298 2.47295,-2.47298 1.36577,0 2.47295,1.10719 2.47295,2.47298 z"
             style="color:#000000;fill:#2ad4ff;fill-opacity:1;fill-rule:nonzero;stroke:none;stroke-width:5;marker:none;visibility:visible;display:inline;overflow:visible;enable-background:accumulate" />
        </g>
      </g>
    </g>
    <path
       style="fill:none;stroke:#2ad4ff;stroke-width:1px;stroke-linecap:butt;stroke-linejoin:miter;stroke-opacity:1"
       d="m 30,965.07646 452,0 0,0 0,0"
       id="path3028"
       inkscape:connector-curvature="0" />
    <text
       xml:space="preserve"
       style="font-size:40px;font-style:normal;font-variant:normal;font-weight:normal;font-stretch:normal;line-height:125%;letter-spacing:14.80000019px;word-spacing:0px;fill:#008fbb;fill-opacity:1;stroke:none;font-family:Sawasdee;-inkscape-font-specification:Sawasdee"
       x="30"
       y="1014.3622"
       id="text3030"
       sodipodi:linespacing="125%"><tspan
         sodipodi:role="line"
         id="tspan3032"
         x="30"
         y="1014.3622"
         style="font-size:32px;font-style:normal;font-variant:normal;font-weight:normal;font-stretch:normal;letter-spacing:14.80000019px;fill:#008fbb;fill-opacity:1;font-family:Open Sans;-inkscape-font-specification:Open Sans">www.nxtinfo.org</tspan></text>
  </g>
</svg>
