<?xml version="1.0" encoding="UTF-8" standalone="no"?>
<!-- Created with Inkscape (http://www.inkscape.org/) -->

<svg
   xmlns:dc="http://purl.org/dc/elements/1.1/"
   xmlns:cc="http://creativecommons.org/ns#"
   xmlns:rdf="http://www.w3.org/1999/02/22-rdf-syntax-ns#"
   xmlns:svg="http://www.w3.org/2000/svg"
   xmlns="http://www.w3.org/2000/svg"
   xmlns:sodipodi="http://sodipodi.sourceforge.net/DTD/sodipodi-0.dtd"
   xmlns:inkscape="http://www.inkscape.org/namespaces/inkscape"
   width="512"
   height="256"
   id="svg2"
   version="1.1"
   inkscape:version="0.48.4 r9939"
   sodipodi:docname="supernet-partners-banner-template-512x256.svg"
   inkscape:export-filename="/home/gabo/wwwsupernetorg/assets/images/partners/nxinfo-banner.png"
   inkscape:export-xdpi="90"
   inkscape:export-ydpi="90">
  <defs
     id="defs4">
    <style
       id="style3027"
       type="text/css">
    .fil0 {fill:white}
    .fil1 {fill:white;fill-rule:nonzero}
   </style>
  </defs>
  <sodipodi:namedview
     id="base"
     pagecolor="#ffffff"
     bordercolor="#666666"
     borderopacity="1.0"
     inkscape:pageopacity="0.0"
     inkscape:pageshadow="2"
     inkscape:zoom="1.979899"
     inkscape:cx="264.58628"
     inkscape:cy="82.378386"
     inkscape:document-units="px"
     inkscape:current-layer="layer1"
     showgrid="false"
     showguides="true"
     inkscape:guide-bbox="true"
     inkscape:window-width="1855"
     inkscape:window-height="1176"
     inkscape:window-x="65"
     inkscape:window-y="24"
     inkscape:window-maximized="1">
    <sodipodi:guide
       orientation="1,0"
       position="30,0"
       id="guide2985" />
    <sodipodi:guide
       orientation="1,0"
       position="482,0"
       id="guide2987" />
    <sodipodi:guide
       orientation="0,1"
       position="0,30"
       id="guide2989" />
    <sodipodi:guide
       orientation="0,1"
       position="0,226"
       id="guide2991" />
  </sodipodi:namedview>
  <metadata
     id="metadata7">
    <rdf:RDF>
      <cc:Work
         rdf:about="">
        <dc:format>image/svg+xml</dc:format>
        <dc:type
           rdf:resource="http://purl.org/dc/dcmitype/StillImage" />
        <dc:title></dc:title>
      </cc:Work>
    </rdf:RDF>
  </metadata>
  <g
     inkscape:label="Vrstva 1"
     inkscape:groupmode="layer"
     id="layer1"
     transform="translate(0,-796.36218)">
    <g
       id="g3111">
      <path
         style="fill:#f58634;fill-rule:evenodd;fill-opacity:1"
         inkscape:connector-curvature="0"
         class="fil0"
         d="m 221.01592,982.18275 c 8.83817,1.41032 18.06708,2.16274 27.56496,2.16274 31.37975,0 59.85524,-8.16208 80.78295,-21.43114 -25.6712,-37.54628 -64.19526,-90.04093 -104.54039,-104.9693 -9.49607,-3.52036 -19.2902,-5.28145 -29.3206,-5.28145 -10.56472,0 -19.25567,2.08277 -26.13646,6.18653 -6.83172,4.11648 -10.25212,9.26162 -10.25212,15.44815 0,2.41719 0.55613,4.67443 1.64841,6.70814 1.07773,2.03189 2.81338,3.97835 5.0579,5.75216 5.75399,4.27824 18.1634,7.05527 37.29367,8.22024 8.77819,0.51979 15.6099,1.04139 20.42064,1.63751 14.18323,1.59752 25.42948,6.14836 33.73514,13.67434 8.27112,7.52598 12.42213,16.73853 12.42213,27.7358 0,13.0546 -5.66311,23.82832 -17.04567,32.2721 -8.55101,6.33375 -19.09574,10.3012 -31.63056,11.88418 z"
         id="path3031" />
      <path
         style="fill:#97989a;fill-rule:evenodd;fill-opacity:1"
         inkscape:connector-curvature="0"
         class="fil0"
         d="m 354.15176,939.75666 c 6.92441,-9.78868 10.79917,-20.69507 10.79917,-32.20122 0,-11.50434 -3.87295,-22.41255 -10.79917,-32.19941 l 0,64.40063 z"
         id="path3033" />
      <path
         style="fill:#f58634;fill-rule:nonzero;color:#000000;fill-opacity:1;stroke-width:1;stroke-linecap:butt;stroke-linejoin:miter;stroke-miterlimit:4;stroke-opacity:1;stroke-dasharray:none;stroke-dashoffset:0;marker:none;visibility:visible;display:inline;overflow:visible;enable-background:accumulate"
         inkscape:connector-curvature="0"
         class="fil0"
         d="m 175.90004,960.81522 c 10.68831,4.01471 21.28756,6.04841 31.75232,6.04841 12.93102,0 23.44667,-2.72615 31.49243,-8.22024 8.09483,-5.49227 12.11317,-12.54753 12.11317,-21.14943 0,-6.84626 -2.88971,-12.46212 -8.69277,-16.87484 -17.19289,-13.08004 -59.03194,-6.49731 -81.71529,-16.7876 -6.49731,-3.16233 -11.4698,-7.17885 -14.84113,-12.11317 -2.73341,-4.02924 -4.3582,-8.43106 -4.87798,-13.24906 -18.19429,33.65517 -2.07551,68.32264 34.76925,82.34593 z"
         id="path3035" />
      <path
         style="fill:#97989a;fill-rule:evenodd;fill-opacity:1"
         inkscape:connector-curvature="0"
         class="fil0"
         d="m 336.75714,857.69243 c -21.34027,-16.26418 -52.9272,-26.56356 -88.17626,-26.56356 -15.19371,0 -29.70407,1.91557 -43.00948,5.39413 8.13846,0.79967 16.20239,2.54077 24.18636,5.24511 45.37578,15.36818 82.29505,61.41459 106.99938,97.97765 l 0,-82.05333 z"
         id="path3037" />
      <path
         style="fill:#97989a;fill-rule:nonzero;fill-opacity:1"
         inkscape:connector-curvature="0"
         class="fil1"
         d="m 134.79159,1018.5841 0.77604,-1.1487 c 0.75969,0.5852 1.54664,1.0342 2.3663,1.3449 0.81784,0.309 1.63023,0.4635 2.43172,0.4635 0.9905,0 1.79562,-0.209 2.41355,-0.6289 0.61792,-0.4216 0.92689,-0.9614 0.92689,-1.6211 0,-0.5234 -0.22173,-0.9541 -0.667,-1.2922 -0.44345,-0.338 -1.05593,-0.5398 -1.83742,-0.607 -0.18901,-0.02 -0.46163,-0.04 -0.81603,-0.054 -1.76291,-0.1254 -2.96241,-0.3308 -3.60578,-0.6234 -0.49434,-0.2417 -0.87782,-0.5507 -1.13589,-0.9287 -0.25808,-0.3799 -0.38712,-0.8033 -0.38712,-1.2795 0,-0.8596 0.38348,-1.5684 1.15589,-2.13 0.76877,-0.5562 1.76836,-0.8342 2.99876,-0.8342 0.89417,0 1.77745,0.1454 2.64799,0.4416 0.87055,0.2926 1.6993,0.7306 2.4808,1.3086 l -0.77423,1.1122 c -0.66336,-0.5325 -1.3558,-0.9341 -2.08459,-1.2067 -0.72879,-0.2672 -1.47757,-0.4035 -2.24634,-0.4035 -0.80694,0 -1.47394,0.1581 -2.00281,0.4743 -0.52342,0.3126 -0.78331,0.7088 -0.78331,1.1832 0,0.1854 0.0418,0.358 0.12358,0.5125 0.0836,0.1563 0.21628,0.3053 0.38893,0.4416 0.44164,0.3272 1.39215,0.538 2.857,0.6289 0.67245,0.04 1.19587,0.08 1.56299,0.1254 1.08682,0.1236 1.9501,0.4707 2.5862,1.0468 0.63065,0.5761 0.9487,1.2831 0.9487,2.1246 0,0.9996 -0.43255,1.8265 -1.30491,2.4717 -0.87237,0.6452 -2.01372,0.9705 -3.42586,0.9705 -1.06683,0 -2.06096,-0.1545 -2.97513,-0.4634 -0.9178,-0.3108 -1.79017,-0.7852 -2.61892,-1.4285 z m 33.80602,-9.1017 0,6.9371 c 0,1.1104 0.21082,1.8574 0.62701,2.2391 0.41801,0.3762 1.23767,0.5652 2.46262,0.5652 1.22313,0 2.04279,-0.189 2.45535,-0.5652 0.41437,-0.3817 0.61974,-1.1287 0.61974,-2.2391 l 0,-6.9371 1.33218,0 0,7.2969 c 0,1.3195 -0.34168,2.2664 -1.02685,2.8407 -0.68699,0.5707 -1.81561,0.856 -3.38769,0.856 -1.57026,0 -2.7007,-0.2853 -3.38587,-0.856 -0.68517,-0.5743 -1.02685,-1.5212 -1.02685,-2.8407 l 0,-7.2969 1.33036,0 z m 31.5942,4.7707 4.73077,0 c 0.67427,0 1.18315,-0.149 1.52846,-0.4453 0.34895,-0.2962 0.51978,-0.7324 0.51978,-1.3085 0,-0.5616 -0.17083,-1.0032 -0.51978,-1.3122 -0.34531,-0.3162 -0.83238,-0.4725 -1.46121,-0.4725 l -4.79802,0 0,3.5385 z m -1.33218,5.9448 0,-10.7155 6.15019,0 c 1.03957,0 1.85741,0.258 2.45353,0.776 0.60157,0.5162 0.89963,1.225 0.89963,2.1228 0,0.9323 -0.28716,1.6865 -0.86874,2.2608 -0.57612,0.5762 -1.34853,0.8633 -2.30813,0.8633 l -4.9943,0 0,4.6926 -1.33218,0 z m 31.57058,0 0,-10.7155 8.42742,0 0,1.2322 -7.09706,0 0,3.1423 4.29459,0 0,1.2322 -4.29459,0 0,3.8766 7.53506,0 0,1.2322 -8.86542,0 z m 31.98313,-5.9448 4.73077,0 c 0.67245,0 1.18133,-0.149 1.52846,-0.4453 0.34713,-0.2962 0.51797,-0.7324 0.51797,-1.3085 0,-0.5616 -0.17084,-1.0032 -0.51797,-1.3122 -0.34713,-0.3162 -0.83238,-0.4725 -1.46121,-0.4725 l -4.79802,0 0,3.5385 z m -1.33399,5.9448 0,-10.7155 6.15018,0 c 1.04684,0 1.8665,0.2653 2.46262,0.7924 0.59248,0.5252 0.89236,1.2558 0.89236,2.1863 0,0.7743 -0.23263,1.4376 -0.69608,1.9919 -0.46708,0.5525 -1.08137,0.8978 -1.84287,1.0323 l 2.67707,4.7126 -1.47211,0 -2.68071,-4.6926 -4.15647,0 0,4.6926 -1.33399,0 z"
         id="path3039" />
      <path
         style="fill:#f58634;fill-rule:nonzero;color:#000000;fill-opacity:1;stroke-width:1;stroke-linecap:butt;stroke-linejoin:miter;stroke-miterlimit:4;stroke-opacity:1;stroke-dasharray:none;stroke-dashoffset:0;marker:none;visibility:visible;display:inline;overflow:visible;enable-background:accumulate"
         inkscape:connector-curvature="0"
         class="fil1"
         d="m 292.87165,1020.1943 0,-10.7156 0.69971,0 6.95531,8.0094 0,-8.0094 1.33036,0 0,10.7156 -0.6779,0 -6.9753,-8.0076 0,8.0076 -1.33218,0 z m 32.04311,0 0,-10.7156 8.42924,0 0,1.2322 -7.09706,0 0,3.1406 4.29459,0 0,1.234 -4.29459,0 0,3.8748 7.53506,0 0,1.234 -8.86724,0 z m 32.58107,0 0,-9.4834 -4.5145,0 0,-1.2322 10.35935,0 0,1.2322 -4.51449,0 0,9.4834 -1.33036,0 z"
         id="path3041" />
      <path
         style="fill:#f58634;fill-rule:nonzero;fill-opacity:1"
         inkscape:connector-curvature="0"
         class="fil1"
         d="m 292.32824,1020.1943 0,-10.7156 0,-0.5434 0.54341,0 0.69971,0 0.24536,0 0.16538,0.189 6.00116,6.9117 0,-6.5573 0,-0.5434 0.54341,0 1.33036,0 0.54523,0 0,0.5434 0,10.7156 0,0.5434 -0.54523,0 -0.6779,0 -0.24717,0 -0.16357,-0.1872 -6.02115,-6.9135 0,6.5573 0,0.5434 -0.54341,0 -1.33218,0 -0.54341,0 0,-0.5434 z m 1.08864,-10.0686 0,9.5252 0.24354,0 0,-7.4642 0.95415,-0.358 6.69905,7.6931 0,-9.4997 -0.24354,0 0,7.466 -0.95233,0.3544 -6.70087,-7.7168 z m 30.95447,10.0686 0,-10.7156 0,-0.5434 0.54341,0 8.42924,0 0.54341,0 0,0.5434 0,1.2322 0,0.5435 -0.54341,0 -6.55365,0 0,2.0537 3.75118,0 0.54341,0 0,0.5434 0,1.234 0,0.5434 -0.54341,0 -3.75118,0 0,2.7879 6.99165,0 0.54523,0 0,0.5435 0,1.234 0,0.5434 -0.54523,0 -8.86724,0 -0.54341,0 0,-0.5434 z m 1.08864,-10.1722 0,9.6288 7.7786,0 0,-0.1454 -6.99165,0 -0.54341,0 0,-0.5452 0,-3.8748 0,-0.5434 0.54341,0 3.74936,0 0,-0.1454 -3.74936,0 -0.54341,0 0,-0.5452 0,-3.1406 0,-0.5434 0.54341,0 6.55365,0 0,-0.1454 -7.3406,0 z m 31.49061,10.1722 0,-8.9399 -3.96927,0 -0.54341,0 0,-0.5435 0,-1.2322 0,-0.5434 0.54341,0 10.35935,0 0.54342,0 0,0.5434 0,1.2322 0,0.5435 -0.54342,0 -3.96926,0 0,8.9399 0,0.5434 -0.54523,0 -1.33036,0 -0.54523,0 0,-0.5434 z m 1.08864,-9.4834 0,8.94 0.24354,0 0,-8.94 0,-0.5434 0.54341,0 3.97108,0 0,-0.1454 -9.27252,0 0,0.1454 3.97108,0 0.54341,0 0,0.5434 z"
         id="path3043" />
    </g>
  </g>
</svg>
